<svg xmlns="http://www.w3.org/2000/svg" viewBox="0 0 32 32">
  <path fill="#2396ed" d="M18.432 13.267h3.461v-3.139h-3.461v3.139zm-4.153 0h3.461v-3.139h-3.461v3.139zm-4.153 0h3.461v-3.139h-3.461v3.139zm-4.153 0h3.461v-3.139h-3.461v3.139zm4.153-3.718h3.461v-3.139h-3.461v3.139zm4.153 0h3.461v-3.139h-3.461v3.139zm4.153 0h3.461v-3.139h-3.461v3.139zm0-3.718h3.461v-3.139h-3.461v3.139zm15.951 7.436c-.749-.483-2.475-.664-3.803-.423-.171-1.244-.87-2.329-2.136-3.299l-.724-.483-.483.724c-.966 1.427-1.207 3.804-.191 5.352.453.694 1.125 1.226 2.008 1.467-1.427 2.943-4.612 4.37-7.917 4.37-1.849 0-3.542-.694-4.507-2.329l-.03-.06-.271-.543c-.633-1.156-.844-2.419-.724-3.673.06-.935.332-1.849.784-2.632h.362c.211 0 .423 0 .633-.03h6.802v-1.156h-6.802c-.935 0-1.759.785-1.759 1.759v.151h-.091c-1.186-1.668-1.126-3.944.181-5.553.995-1.216 2.551-1.91 4.28-1.91h.935c2.632 0 4.823.935 6.078 2.933.905-.543 2.51-.694 3.351-.543-.483 1.578.09 2.873.543 3.466-.784.453-2.541.875-3.445.633z"/>
</svg> 