<svg xmlns="http://www.w3.org/2000/svg" viewBox="0 0 32 32">
  <path fill="#00ed64" d="M15.9.087l.854 1.604c.192.296.4.558.645.802.715.715 1.394 1.464 2.004 2.266 1.447 1.9 2.423 4.01 3.12 6.292.418 1.394.645 2.824.662 4.27.07 4.323-1.412 8.035-4.4 11.12-.488.488-1.01.94-1.57 1.342-.296 0-.436-.227-.558-.436-.227-.383-.366-.802-.436-1.222-.174-.978-.14-1.968-.087-2.98.174-2.824 1.394-5.332 2.928-7.672.418-.663.89-1.29 1.342-1.918 0-.157 0-.227-.14-.323-.784-.697-1.377-1.604-1.813-2.615-.366-.89-.61-1.813-.662-2.772-.087-1.144-.07-2.266.314-3.345 0-.14.105-.366.017-.436-.14-.087-.314.053-.436.105-.68.297-1.29.715-1.83 1.222-1.342 1.274-2.353 2.824-3.207 4.46-.374.715-.662 1.464-.904 2.214v.227c-.174.523-.314 1.064-.366 1.604 0 .14-.07.227-.174.297-.166 0-.192-.14-.21-.244-.052-.436 0-.89.105-1.325.017-.087.087-.227.07-.297-.14-.383-.157-.802-.21-1.222-.105-.89-.122-1.797-.14-2.702V8.886c0-.663.017-1.334.157-2.005.07-.297.14-.61.279-.906.47-1.082 1.047-2.11 1.797-3.02C11.948 1.56 12.89.58 14.063.087c.366-.122.714-.122 1.079-.14.418 0 .767.105 1.222.366.261.14.47.296.558.575 0 .157.052.297.087.47z"/>
</svg> 