<svg xmlns="http://www.w3.org/2000/svg" viewBox="0 0 448 448">
  <path fill="#539e43" d="M224 412.8c-4.2 0-8.5-1.1-12.2-3.2l-38.7-22.9c-5.8-3.2-2.9-4.4-1.1-5.1 7.7-2.7 9.3-3.3 17.6-8 .9-.5 2-.3 2.9.2l29.7 17.6c1.1.6 2.6.6 3.6 0l115.8-66.8c1.1-.6 1.8-1.9 1.8-3.2v-133.7c0-1.3-.7-2.6-1.8-3.2l-115.8-66.7c-1.1-.6-2.5-.6-3.6 0l-115.8 66.7c-1.1.6-1.8 1.9-1.8 3.2v133.7c0 1.3.7 2.6 1.8 3.2l31.7 18.3c17.4 8.7 28-1.5 28-11.8v-132c0-1.9 1.5-3.4 3.4-3.4h14.7c1.9 0 3.4 1.5 3.4 3.4v132c0 23.1-12.6 36.4-34.5 36.4-6.7 0-12 0-26.8-7.3l-30.5-17.5c-7.5-4.4-12.2-12.5-12.2-21.3v-133.7c0-8.7 4.7-16.9 12.2-21.3l115.8-66.8c7.3-4.2 17.1-4.2 24.4 0l115.8 66.8c7.5 4.4 12.2 12.5 12.2 21.3v133.7c0 8.7-4.7 16.9-12.2 21.3l-115.8 66.8c-3.7 2.1-8 3.2-12.2 3.2zm32.7-93c-50.7 0-61.4-23.3-61.4-42.9 0-1.9 1.5-3.4 3.4-3.4h15c1.7 0 3.1 1.2 3.3 2.8 2.3 15.4 9.1 23.1 39.7 23.1 24.5 0 34.9-5.5 34.9-18.5 0-7.5-2.9-13-40.9-16.7-31.7-3.1-51.3-10.1-51.3-35.6 0-23.4 19.8-37.4 52.9-37.4 37.2 0 55.7 12.9 58.1 40.6.1.9-.2 1.8-.8 2.4-.6.7-1.4 1.1-2.3 1.1h-15.1c-1.6 0-2.9-1.1-3.3-2.6-3.6-16.3-12.6-21.5-36.6-21.5-26.9 0-30.1 9.4-30.1 16.4 0 8.5 3.7 11 39.6 15.8 35.6 4.7 52.6 11.4 52.6 36.2 0 25.3-21.1 39.7-57.9 39.7z"/>
</svg> 