<svg xmlns="http://www.w3.org/2000/svg" viewBox="0 0 32 32">
  <path fill="#336791" d="M16,0A16,16,0,1,0,32,16,16,16,0,0,0,16,0Zm0,29.5A13.5,13.5,0,1,1,29.5,16,13.52,13.52,0,0,1,16,29.5Z"/>
  <path fill="#336791" d="M19.32,13.48a4.54,4.54,0,0,0-3.24-1.86,4.64,4.64,0,0,0-3.27,1.86,4.54,4.54,0,0,0-1.13,3.24,4.64,4.64,0,0,0,1.13,3.27,4.54,4.54,0,0,0,3.27,1.13,4.64,4.64,0,0,0,3.24-1.13,4.54,4.54,0,0,0,1.13-3.27A4.64,4.64,0,0,0,19.32,13.48Zm-3.24,6.64a3.4,3.4,0,1,1,3.4-3.4A3.4,3.4,0,0,1,16.08,20.12Z"/>
  <path fill="#336791" d="M16.08,14.32a2.4,2.4,0,1,0,2.4,2.4A2.4,2.4,0,0,0,16.08,14.32Z"/>
</svg> 